<svg viewBox="0 0 720 468" role="img" aria-label="CoDel drop count against time: the interval over square-root-of-count model and a measured run" xmlns="http://www.w3.org/2000/svg" font-size="12" font-family="-apple-system,BlinkMacSystemFont,Segoe UI,Inter,Roboto,sans-serif">
<line x1="58" x2="590" y1="250.0" y2="250.0" stroke="#e8ebef" stroke-width="1"/>
<text x="50" y="254.0" text-anchor="end" fill="#898781">0</text>
<line x1="58" x2="590" y1="176.7" y2="176.7" stroke="#e8ebef" stroke-width="1"/>
<text x="50" y="180.7" text-anchor="end" fill="#898781">100</text>
<line x1="58" x2="590" y1="103.3" y2="103.3" stroke="#e8ebef" stroke-width="1"/>
<text x="50" y="107.3" text-anchor="end" fill="#898781">200</text>
<line x1="58" x2="590" y1="30.0" y2="30.0" stroke="#e8ebef" stroke-width="1"/>
<text x="50" y="34.0" text-anchor="end" fill="#898781">300</text>
<line x1="58" x2="590" y1="250.0" y2="250.0" stroke="#c3c2b7" stroke-width="1"/>
<text x="14" y="140.0" fill="#4a5560" text-anchor="middle" transform="rotate(-90 14 140.0)">drops so far</text>
<polyline points="58.0,250.0 59.6,250.0 61.1,250.0 62.7,250.0 64.3,250.0 65.8,250.0 67.4,249.9 69.0,249.9 70.5,249.9 72.1,249.9 73.6,249.8 75.2,249.8 76.8,249.7 78.3,249.7 79.9,249.6 81.5,249.6 83.0,249.5 84.6,249.5 86.2,249.4 87.7,249.3 89.3,249.3 90.9,249.2 92.4,249.1 94.0,249.0 95.6,248.9 97.1,248.9 98.7,248.8 100.2,248.7 101.8,248.6 103.4,248.5 104.9,248.3 106.5,248.2 108.1,248.1 109.6,248.0 111.2,247.9 112.8,247.8 114.3,247.6 115.9,247.5 117.5,247.4 119.0,247.2 120.6,247.1 122.2,246.9 123.7,246.8 125.3,246.6 126.8,246.5 128.4,246.3 130.0,246.1 131.5,246.0 133.1,245.8 134.7,245.6 136.2,245.4 137.8,245.2 139.4,245.0 140.9,244.9 142.5,244.7 144.1,244.5 145.6,244.3 147.2,244.0 148.8,243.8 150.3,243.6 151.9,243.4 153.4,243.2 155.0,243.0 156.6,242.7 158.1,242.5 159.7,242.3 161.3,242.0 162.8,241.8 164.4,241.5 166.0,241.3 167.5,241.0 169.1,240.8 170.7,240.5 172.2,240.2 173.8,240.0 175.4,239.7 176.9,239.4 178.5,239.1 180.0,238.8 181.6,238.6 183.2,238.3 184.7,238.0 186.3,237.7 187.9,237.4 189.4,237.1 191.0,236.8 192.6,236.4 194.1,236.1 195.7,235.8 197.3,235.5 198.8,235.2 200.4,234.8 202.0,234.5 203.5,234.1 205.1,233.8 206.6,233.5 208.2,233.1 209.8,232.8 211.3,232.4 212.9,232.0 214.5,231.7 216.0,231.3 217.6,230.9 219.2,230.6 220.7,230.2 222.3,229.8 223.9,229.4 225.4,229.0 227.0,228.6 228.6,228.2 230.1,227.8 231.7,227.4 233.2,227.0 234.8,226.6 236.4,226.2 237.9,225.8 239.5,225.3 241.1,224.9 242.6,224.5 244.2,224.0 245.8,223.6 247.3,223.2 248.9,222.7 250.5,222.3 252.0,221.8 253.6,221.4 255.2,220.9 256.7,220.4 258.3,220.0 259.8,219.5 261.4,219.0 263.0,218.5 264.5,218.1 266.1,217.6 267.7,217.1 269.2,216.6 270.8,216.1 272.4,215.6 273.9,215.1 275.5,214.6 277.1,214.1 278.6,213.6 280.2,213.0 281.8,212.5 283.3,212.0 284.9,211.5 286.4,210.9 288.0,210.4 289.6,209.8 291.1,209.3 292.7,208.8 294.3,208.2 295.8,207.6 297.4,207.1 299.0,206.5 300.5,206.0 302.1,205.4 303.7,204.8 305.2,204.2 306.8,203.7 308.4,203.1 309.9,202.5 311.5,201.9 313.0,201.3 314.6,200.7 316.2,200.1 317.7,199.5 319.3,198.9 320.9,198.3 322.4,197.6 324.0,197.0 325.6,196.4 327.1,195.8 328.7,195.1 330.3,194.5 331.8,193.9 333.4,193.2 335.0,192.6 336.5,191.9 338.1,191.3 339.6,190.6 341.2,189.9 342.8,189.3 344.3,188.6 345.9,187.9 347.5,187.3 349.0,186.6 350.6,185.9 352.2,185.2 353.7,184.5 355.3,183.8 356.9,183.1 358.4,182.4 360.0,181.7 361.6,181.0 363.1,180.3 364.7,179.6 366.2,178.9 367.8,178.1 369.4,177.4 370.9,176.7 372.5,175.9 374.1,175.2 375.6,174.5 377.2,173.7 378.8,173.0 380.3,172.2 381.9,171.4 383.5,170.7 385.0,169.9 386.6,169.2 388.2,168.4 389.7,167.6 391.3,166.8 392.8,166.0 394.4,165.3 396.0,164.5 397.5,163.7 399.1,162.9 400.7,162.1 402.2,161.3 403.8,160.5 405.4,159.6 406.9,158.8 408.5,158.0 410.1,157.2 411.6,156.4 413.2,155.5 414.8,154.7 416.3,153.9 417.9,153.0 419.4,152.2 421.0,151.3 422.6,150.5 424.1,149.6 425.7,148.8 427.3,147.9 428.8,147.0 430.4,146.2 432.0,145.3 433.5,144.4 435.1,143.5 436.7,142.6 438.2,141.7 439.8,140.9 441.4,140.0 442.9,139.1 444.5,138.2 446.0,137.2 447.6,136.3 449.2,135.4 450.7,134.5 452.3,133.6 453.9,132.7 455.4,131.7 457.0,130.8 458.6,129.9 460.1,128.9 461.7,128.0 463.3,127.0 464.8,126.1 466.4,125.1 468.0,124.2 469.5,123.2 471.1,122.2 472.6,121.3 474.2,120.3 475.8,119.3 477.3,118.3 478.9,117.3 480.5,116.3 482.0,115.4 483.6,114.4 485.2,113.4 486.7,112.4 488.3,111.4 489.9,110.3 491.4,109.3 493.0,108.3 494.6,107.3 496.1,106.3 497.7,105.2 499.2,104.2 500.8,103.2 502.4,102.1 503.9,101.1 505.5,100.0 507.1,99.0 508.6,97.9 510.2,96.9 511.8,95.8 513.3,94.8 514.9,93.7 516.5,92.6 518.0,91.5 519.6,90.5 521.2,89.4 522.7,88.3 524.3,87.2 525.8,86.1 527.4,85.0 529.0,83.9 530.5,82.8 532.1,81.7 533.7,80.6 535.2,79.5 536.8,78.3 538.4,77.2 539.9,76.1 541.5,75.0 543.1,73.8 544.6,72.7 546.2,71.5 547.8,70.4 549.3,69.2 550.9,68.1 552.4,66.9 554.0,65.8 555.6,64.6 557.1,63.4 558.7,62.3 560.3,61.1 561.8,59.9 563.4,58.7 565.0,57.5 566.5,56.4 568.1,55.2 569.7,54.0 571.2,52.8 572.8,51.6 574.4,50.4 575.9,49.1 577.5,47.9 579.0,46.7 580.6,45.5 582.2,44.3 583.7,43.0 585.3,41.8 586.9,40.6 588.4,39.3 590.0,38.1" fill="none" stroke="#eda100" stroke-width="1.5" stroke-linejoin="round" stroke-linecap="round" stroke-dasharray="5 4"/>
<line x1="594" x2="606" y1="57.9" y2="57.9" stroke="#eda100" stroke-width="2"/>
<text x="610" y="61.9" fill="#1b1f24">(t/2I)²</text>
<polyline points="58.0,249.3 73.6,248.5 84.7,247.8 93.7,247.1 101.6,246.3 108.6,245.6 115.0,244.9 120.9,244.1 126.4,243.4 131.6,242.7 136.6,241.9 141.3,241.2 145.8,240.5 150.1,239.7 154.3,239.0 158.4,238.3 162.3,237.5 166.1,236.8 169.8,236.1 173.3,235.3 176.8,234.6 180.3,233.9 183.6,233.1 186.9,232.4 190.1,231.7 193.2,230.9 196.2,230.2 199.3,229.5 202.2,228.7 205.1,228.0 208.0,227.3 210.8,226.5 213.6,225.8 216.3,225.1 219.0,224.3 221.6,223.6 224.2,222.9 226.8,222.1 229.3,221.4 231.8,220.7 234.3,219.9 236.7,219.2 239.2,218.5 241.5,217.7 243.9,217.0 246.2,216.3 248.5,215.5 250.8,214.8 253.1,214.1 255.3,213.3 257.5,212.6 259.7,211.9 261.9,211.1 264.0,210.4 266.2,209.7 268.3,208.9 270.4,208.2 272.4,207.5 274.5,206.7 276.5,206.0 278.6,205.3 280.6,204.5 282.6,203.8 284.5,203.1 286.5,202.3 288.4,201.6 290.3,200.9 292.3,200.1 294.2,199.4 296.0,198.7 297.9,197.9 299.8,197.2 301.6,196.5 303.4,195.7 305.3,195.0 307.1,194.3 308.9,193.5 310.6,192.8 312.4,192.1 314.2,191.3 315.9,190.6 317.7,189.9 319.4,189.1 321.1,188.4 322.8,187.7 324.5,186.9 326.2,186.2 327.9,185.5 329.5,184.7 331.2,184.0 332.9,183.3 334.5,182.5 336.1,181.8 337.7,181.1 339.4,180.3 341.0,179.6 342.6,178.9 344.2,178.1 345.7,177.4 347.3,176.7 348.9,175.9 350.4,175.2 352.0,174.5 353.5,173.7 355.1,173.0 356.6,172.3 358.1,171.5 359.6,170.8 361.1,170.1 362.6,169.3 364.1,168.6 365.6,167.9 367.1,167.1 368.5,166.4 370.0,165.7 371.5,164.9 372.9,164.2 374.4,163.5 375.8,162.7 377.2,162.0 378.7,161.3 380.1,160.5 381.5,159.8 382.9,159.1 384.3,158.3 385.7,157.6 387.1,156.9 388.5,156.1 389.9,155.4 391.3,154.7 392.6,153.9 394.0,153.2 395.4,152.5 396.7,151.7 398.1,151.0 399.4,150.3 400.8,149.5 402.1,148.8 403.4,148.1 404.8,147.3 406.1,146.6 407.4,145.9 408.7,145.1 410.0,144.4 411.3,143.7 412.6,142.9 413.9,142.2 415.2,141.5 416.5,140.7 417.8,140.0 419.1,139.3 420.3,138.5 421.6,137.8 422.9,137.1 424.1,136.3 425.4,135.6 426.6,134.9 427.9,134.1 429.1,133.4 430.4,132.7 431.6,131.9 432.8,131.2 434.1,130.5 435.3,129.7 436.5,129.0 437.7,128.3 439.0,127.5 440.2,126.8 441.4,126.1 442.6,125.3 443.8,124.6 445.0,123.9 446.2,123.1 447.4,122.4 448.5,121.7 449.7,120.9 450.9,120.2 452.1,119.5 453.3,118.7 454.4,118.0 455.6,117.3 456.8,116.5 457.9,115.8 459.1,115.1 460.2,114.3 461.4,113.6 462.5,112.9 463.7,112.1 464.8,111.4 465.9,110.7 467.1,109.9 468.2,109.2 469.3,108.5 470.5,107.7 471.6,107.0 472.7,106.3 473.8,105.5 474.9,104.8 476.1,104.1 477.2,103.3 478.3,102.6 479.4,101.9 480.5,101.1 481.6,100.4 482.7,99.7 483.8,98.9 484.8,98.2 485.9,97.5 487.0,96.7 488.1,96.0 489.2,95.3 490.3,94.5 491.3,93.8 492.4,93.1 493.5,92.3 494.5,91.6 495.6,90.9 496.7,90.1 497.7,89.4 498.8,88.7 499.8,87.9 500.9,87.2 501.9,86.5 503.0,85.7 504.0,85.0 505.1,84.3 506.1,83.5 507.2,82.8 508.2,82.1 509.2,81.3 510.3,80.6 511.3,79.9 512.3,79.1 513.3,78.4 514.4,77.7 515.4,76.9 516.4,76.2 517.4,75.5 518.4,74.7 519.5,74.0 520.5,73.3 521.5,72.5 522.5,71.8 523.5,71.1 524.5,70.3 525.5,69.6 526.5,68.9 527.5,68.1 528.5,67.4 529.5,66.7 530.4,65.9 531.4,65.2 532.4,64.5 533.4,63.7 534.4,63.0 535.4,62.3 536.3,61.5 537.3,60.8 538.3,60.1 539.3,59.3 540.2,58.6 541.2,57.9 542.2,57.1 543.1,56.4 544.1,55.7 545.1,54.9 546.0,54.2 547.0,53.5 547.9,52.7 548.9,52.0 549.8,51.3 550.8,50.5 551.7,49.8 552.7,49.1 553.6,48.3 554.6,47.6 555.5,46.9 556.5,46.1 557.4,45.4 558.3,44.7 559.3,43.9 560.2,43.2 561.1,42.5 562.1,41.7 563.0,41.0 563.9,40.3 564.8,39.5 565.8,38.8 566.7,38.1 567.6,37.3 568.5,36.6 569.4,35.9 570.4,35.1 571.3,34.4 572.2,33.7 573.1,32.9 574.0,32.2 574.9,31.5 575.8,30.7 576.7,30.0 577.6,29.3 578.5,28.5 579.4,27.8 580.3,27.1 581.2,26.3 582.1,25.6 583.0,24.9 583.9,24.1 584.8,23.4 585.7,22.7 586.6,21.9 587.5,21.2 588.4,20.5 589.2,19.7" fill="none" stroke="#2a78d6" stroke-width="2" stroke-linejoin="round" stroke-linecap="round"/>
<line x1="594" x2="606" y1="81.3" y2="81.3" stroke="#2a78d6" stroke-width="2"/>
<text x="610" y="85.3" fill="#1b1f24">model</text>
<polyline points="58.0,249.3 59.1,249.3 60.0,249.3 61.0,249.3 62.1,249.3 63.0,249.3 64.1,249.3 65.4,249.3 66.4,249.3 67.5,249.3 68.5,249.3 69.4,249.3 70.5,249.3 71.5,249.3 72.4,249.3 73.5,248.5 74.4,248.5 75.4,248.5 76.5,248.5 77.4,248.5 78.3,248.5 79.4,248.5 80.4,248.5 81.3,247.8 82.4,247.8 83.3,247.8 84.3,247.8 85.4,247.8 86.3,247.8 87.3,247.8 88.4,247.8 89.3,247.8 90.2,247.1 91.3,247.1 92.3,247.1 93.4,247.1 94.3,247.1 95.2,247.1 96.3,247.1 97.3,246.3 98.2,246.3 99.3,246.3 100.2,246.3 101.2,246.3 102.3,246.3 103.2,246.3 104.2,245.6 105.1,245.6 106.2,245.6 107.1,245.6 108.1,245.6 109.2,245.6 110.1,245.6 111.0,244.9 112.1,244.9 113.1,244.9 114.0,244.9 115.1,244.9 116.1,244.9 117.0,244.1 117.9,244.1 119.0,244.1 120.0,244.1 120.9,244.1 121.8,243.4 122.9,243.4 123.9,243.4 124.8,243.4 125.9,243.4 126.8,243.4 127.8,242.7 128.9,242.7 129.8,242.7 130.8,242.7 131.9,242.7 132.8,241.9 133.9,241.9 134.8,241.9 135.9,241.9 137.2,241.2 138.1,241.2 139.2,241.2 140.1,241.2 141.1,241.2 142.0,240.5 143.1,240.5 144.1,240.5 145.2,239.7 146.4,239.7 147.3,239.7 148.4,239.7 149.7,239.0 150.8,239.0 151.7,239.0 152.8,239.0 153.8,238.3 154.7,238.3 155.8,238.3 156.7,238.3 157.7,237.5 158.8,237.5 159.7,237.5 160.6,237.5 161.7,236.8 162.7,236.8 163.6,236.8 164.7,236.8 165.7,236.1 166.7,236.1 167.7,236.1 168.8,235.3 169.7,235.3 170.7,235.3 171.8,235.3 172.7,234.6 173.8,234.6 174.7,234.6 175.7,233.9 176.8,233.9 177.7,233.9 178.6,233.9 179.7,233.1 180.7,233.1 181.6,233.1 182.7,232.4 183.6,232.4 184.6,232.4 185.7,231.7 186.6,231.7 187.6,231.7 188.5,230.9 189.6,230.9 190.5,230.9 191.5,230.2 192.6,230.2 193.5,230.2 194.4,229.5 195.5,229.5 196.5,229.5 197.4,229.5 198.4,228.7 199.4,228.7 200.4,228.0 201.3,228.0 202.4,228.0 203.4,227.3 204.3,227.3 205.2,227.3 206.3,226.5 207.3,226.5 208.2,226.5 209.3,225.8 210.2,225.8 211.3,225.8 212.3,225.1 213.2,225.1 214.3,224.3 215.3,224.3 216.2,224.3 217.3,223.6 218.2,223.6 219.3,223.6 220.3,222.9 221.4,222.9 222.3,222.1 223.2,222.1 224.2,222.1 225.3,221.4 226.2,221.4 227.1,220.7 228.2,220.7 229.2,220.7 230.3,219.9 231.2,219.9 232.3,219.2 233.2,219.2 234.2,219.2 235.3,218.5 236.2,218.5 237.2,217.7 238.3,217.7 239.2,217.0 240.1,217.0 241.2,217.0 242.2,216.3 243.4,216.3 244.5,215.5 245.5,215.5 246.4,214.8 247.5,214.8 248.4,214.1 249.5,214.1 250.5,214.1 251.4,213.3 252.5,213.3 253.4,212.6 254.4,212.6 255.5,211.9 256.4,211.9 257.3,211.1 258.4,211.1 259.4,210.4 260.3,210.4 261.3,210.4 262.4,209.7 263.3,209.7 264.2,208.9 265.3,208.9 266.3,208.2 267.2,208.2 268.3,207.5 269.2,207.5 270.2,206.7 271.3,206.7 272.2,206.0 273.1,206.0 274.2,205.3 275.2,205.3 276.1,204.5 277.2,204.5 278.2,203.8 279.1,203.8 280.0,203.1 281.1,203.1 282.1,202.3 283.0,202.3 283.9,201.6 285.0,201.6 286.0,200.9 286.9,200.9 288.0,200.1 289.0,200.1 290.0,199.4 291.0,199.4 292.2,198.7 293.5,197.9 294.6,197.9 295.5,197.2 296.5,197.2 297.6,196.5 298.5,196.5 299.4,195.7 300.5,195.7 301.5,195.0 302.4,194.3 303.5,194.3 304.4,193.5 305.4,193.5 306.3,192.8 307.4,192.8 308.4,192.1 309.3,192.1 310.4,191.3 311.3,190.6 312.3,190.6 313.4,189.9 314.3,189.9 315.2,189.1 316.3,188.4 317.3,188.4 318.4,187.7 319.5,187.7 320.4,186.9 321.5,186.2 322.6,186.2 323.5,185.5 324.6,185.5 325.6,184.7 326.7,184.0 327.6,184.0 328.7,183.3 329.6,182.5 330.7,182.5 331.7,181.8 332.8,181.8 333.9,181.1 334.8,180.3 335.9,180.3 337.0,179.6 337.9,178.9 339.0,178.9 340.0,178.1 341.1,177.4 342.2,177.4 343.2,176.7 344.5,175.9 345.4,175.9 346.5,175.2 347.5,174.5 348.6,174.5 349.5,173.7 350.6,173.0 351.9,172.3 352.8,172.3 353.9,171.5 354.8,170.8 355.9,170.8 356.9,170.1 358.0,169.3 359.0,169.3 360.1,168.6 361.1,167.9 362.2,167.9 363.3,167.1 364.2,166.4 365.3,165.7 366.2,165.7 367.2,164.9 368.3,164.2 369.4,164.2 370.3,163.5 371.3,162.7 372.3,162.7 373.3,162.0 374.2,161.3 375.2,160.5 376.3,160.5 377.2,159.8 378.1,159.1 379.1,159.1 380.2,158.3 381.1,157.6 382.2,157.6 383.1,156.9 384.1,156.1 385.2,155.4 386.1,155.4 387.1,154.7 388.2,153.9 389.1,153.9 390.0,153.2 391.1,152.5 392.1,151.7 393.0,151.7 393.9,151.0 395.0,150.3 396.0,149.5 396.9,149.5 397.9,148.8 398.9,148.1 399.9,147.3 400.8,147.3 401.9,146.6 402.9,145.9 403.8,145.9 404.9,145.1 405.8,144.4 406.8,143.7 407.7,143.7 408.8,142.9 409.7,142.2 410.7,141.5 411.8,140.7 412.7,140.7 413.7,140.0 414.8,139.3 415.8,138.5 416.9,137.8 417.9,137.8 418.8,137.1 419.9,136.3 420.9,135.6 421.8,134.9 422.9,134.9 423.8,134.1 424.8,133.4 425.9,132.7 426.8,132.7 427.7,131.9 428.7,131.2 429.8,130.5 430.7,129.7 431.7,129.7 432.7,129.0 433.7,128.3 434.6,127.5 435.7,126.8 436.7,126.1 437.6,126.1 438.7,125.3 439.6,124.6 440.6,123.9 441.7,123.1 442.6,122.4 443.7,122.4 444.6,121.7 445.6,120.9 446.7,120.2 447.6,119.5 448.7,118.7 450.0,118.0 450.9,117.3 452.0,116.5 452.9,116.5 453.9,115.8 455.0,115.1 455.9,114.3 456.8,113.6 457.9,112.9 458.9,112.1 460.0,112.1 460.9,111.4 462.0,110.7 462.9,109.9 463.9,109.2 464.8,108.5 465.9,107.7 466.9,107.0 467.8,107.0 468.9,106.3 469.8,105.5 470.8,104.8 471.9,104.1 472.8,103.3 473.9,102.6 475.0,101.9 475.9,101.1 477.0,100.4 478.0,99.7 479.1,98.9 480.0,98.9 481.1,97.5 482.0,97.5 483.0,96.7 484.1,96.0 485.0,95.3 485.9,94.5 486.9,93.8 488.0,93.1 488.9,92.3 489.9,91.6 490.8,90.9 491.9,90.9 492.8,89.4 493.8,89.4 494.7,88.7 495.8,87.9 496.7,87.2 497.8,86.5 498.8,85.7 499.7,85.0 500.7,84.3 501.8,83.5 502.7,82.8 503.6,82.1 504.7,81.3 505.7,80.6 506.6,79.9 507.7,79.1 508.6,78.4 509.6,77.7 510.5,77.7 511.6,76.2 512.5,75.5 513.6,75.5 514.6,74.7 515.5,73.3 516.6,73.3 517.6,72.5 518.5,71.8 519.6,71.1 520.5,70.3 521.5,69.6 522.4,68.9 523.5,68.1 524.4,67.4 525.4,66.7 526.3,65.9 527.4,65.2 528.4,64.5 529.3,63.7 530.2,63.0 531.3,62.3 532.3,61.5 533.4,60.8 534.3,60.1 535.2,59.3 536.3,58.6 537.3,57.9 538.4,56.4 539.5,55.7 540.6,54.9 541.7,54.2 542.6,53.5 543.5,52.7 544.6,52.0 545.6,51.3 546.5,50.5 547.4,49.8 548.5,49.1 549.5,48.3 550.4,47.6 551.5,46.9 552.4,46.1 553.4,44.7 554.6,43.9 555.9,43.2 556.8,42.5 557.9,41.7 558.9,41.0" fill="none" stroke="#eb6834" stroke-width="2.5" stroke-linejoin="round" stroke-linecap="round"/>
<line x1="594" x2="606" y1="104.8" y2="104.8" stroke="#eb6834" stroke-width="2"/>
<text x="610" y="108.8" fill="#1b1f24">measured</text>
<text x="65.8" y="52.0" fill="#4a5560" text-anchor="start">after 1 s: 33 drops, now 17 ms apart</text>
<text x="65.8" y="70.3" fill="#4a5560" text-anchor="start">the measured line sits on the model</text>
<line x1="66" x2="80" y1="18" y2="18" stroke="#2a78d6" stroke-width="2"/>
<text x="85" y="22" fill="#1b1f24">model: interval/√count</text>
<line x1="246" x2="260" y1="18" y2="18" stroke="#eb6834" stroke-width="2"/>
<text x="265" y="22" fill="#1b1f24">measured codel count</text>
<line x1="412" x2="426" y1="18" y2="18" stroke="#eda100" stroke-width="2"/>
<text x="431" y="22" fill="#1b1f24">(t/2I)² shape</text>
<line x1="58" x2="590" y1="426.0" y2="426.0" stroke="#e8ebef" stroke-width="1"/>
<text x="50" y="430.0" text-anchor="end" fill="#898781">0</text>
<line x1="58" x2="590" y1="393.5" y2="393.5" stroke="#e8ebef" stroke-width="1"/>
<text x="50" y="397.5" text-anchor="end" fill="#898781">25</text>
<line x1="58" x2="590" y1="361.0" y2="361.0" stroke="#e8ebef" stroke-width="1"/>
<text x="50" y="365.0" text-anchor="end" fill="#898781">50</text>
<line x1="58" x2="590" y1="328.5" y2="328.5" stroke="#e8ebef" stroke-width="1"/>
<text x="50" y="332.5" text-anchor="end" fill="#898781">75</text>
<line x1="58" x2="590" y1="296.0" y2="296.0" stroke="#e8ebef" stroke-width="1"/>
<text x="50" y="300.0" text-anchor="end" fill="#898781">100</text>
<line x1="58" x2="590" y1="426.0" y2="426.0" stroke="#c3c2b7" stroke-width="1"/>
<text x="14" y="361.0" fill="#4a5560" text-anchor="middle" transform="rotate(-90 14 361.0)">sojourn (ms)</text>
<line x1="58" x2="590" y1="419.5" y2="419.5" stroke="#898781" stroke-width="1" stroke-dasharray="4 4"/>
<text x="596" y="423.5" fill="#898781">target 5 ms</text>
<polyline points="58.0,398.7 59.1,397.3 60.0,397.4 61.0,397.6 62.1,395.1 63.0,393.7 64.1,394.9 65.4,393.5 66.4,392.1 67.5,392.2 68.5,389.7 69.4,391.0 70.5,388.4 71.5,388.6 72.4,388.8 73.5,387.6 74.4,387.8 75.4,388.0 76.5,385.4 77.4,385.6 78.3,384.2 79.4,384.3 80.4,384.5 81.3,384.7 82.4,383.4 83.3,383.7 84.3,381.3 85.4,381.6 86.3,379.2 87.3,380.6 88.4,378.1 89.3,378.4 90.2,378.7 91.3,377.4 92.3,377.8 93.4,375.3 94.3,375.6 95.2,374.4 96.3,374.7 97.3,375.1 98.2,372.6 99.3,373.0 100.2,371.7 101.2,372.0 102.3,369.6 103.2,370.0 104.2,368.7 105.1,368.9 106.2,366.5 107.1,366.8 108.1,367.1 109.2,365.9 110.1,366.2 111.0,366.5 112.1,364.1 113.1,364.5 114.0,363.2 115.1,363.5 116.1,361.1 117.0,361.4 117.9,361.7 119.0,362.1 120.0,360.8 120.9,358.4 121.8,361.3 122.9,359.0 123.9,359.2 124.8,358.0 125.9,358.3 126.8,355.8 127.8,356.2 128.9,356.6 129.8,355.3 130.8,355.6 131.9,353.2 132.8,354.7 133.9,355.0 134.8,353.7 135.9,352.5 137.2,352.8 138.1,351.5 139.2,351.8 140.1,349.4 141.1,349.7 142.0,350.0 143.1,348.7 144.1,349.1 145.2,349.0 146.4,349.3 147.3,348.1 148.4,347.0 149.7,348.5 150.8,346.1 151.7,344.8 152.8,345.2 153.8,345.5 154.7,345.6 155.8,345.8 156.7,343.4 157.7,344.8 158.8,342.4 159.7,343.0 160.6,341.7 161.7,342.0 162.7,342.2 163.6,342.4 164.7,341.0 165.7,341.2 166.7,341.4 167.7,340.1 168.8,340.5 169.7,340.9 170.7,338.4 171.8,337.1 172.7,340.0 173.8,337.5 174.7,337.7 175.7,338.9 176.8,336.4 177.7,336.6 178.6,336.8 179.7,335.4 180.7,335.5 181.6,335.7 182.7,335.9 183.6,334.4 184.6,334.6 185.7,334.9 186.6,335.2 187.6,332.8 188.5,333.1 189.6,331.9 190.5,332.0 191.5,332.2 192.6,329.7 193.5,329.8 194.4,331.1 195.5,331.3 196.5,328.8 197.4,328.9 198.4,329.1 199.4,327.6 200.4,330.4 201.3,327.9 202.4,328.1 203.4,328.3 204.3,326.9 205.2,327.1 206.3,327.3 207.3,327.5 208.2,325.0 209.3,326.2 210.2,326.5 211.3,324.0 212.3,327.1 213.2,325.7 214.3,326.1 215.3,326.4 216.2,325.1 217.3,325.4 218.2,323.1 219.3,324.5 220.3,324.8 221.4,322.4 222.3,325.4 223.2,323.0 224.2,321.6 225.3,321.8 226.2,322.0 227.1,322.2 228.2,322.3 229.2,320.9 230.3,321.1 231.2,322.3 232.3,322.5 233.2,322.7 234.2,320.1 235.3,321.4 236.2,321.7 237.2,322.0 238.3,319.6 239.2,319.9 240.1,321.3 241.2,319.0 242.2,320.4 243.4,319.2 244.5,319.5 245.5,318.2 246.4,321.3 247.5,318.9 248.4,319.2 249.5,317.9 250.5,318.3 251.4,318.5 252.5,318.8 253.4,320.2 254.4,317.7 255.5,318.1 256.4,318.3 257.3,318.6 258.4,317.5 259.4,317.9 260.3,318.1 261.3,318.2 262.4,318.4 263.3,317.0 264.2,317.1 265.3,317.3 266.3,317.5 267.2,317.6 268.3,319.1 269.2,316.7 270.2,316.9 271.3,317.0 272.2,317.3 273.1,316.1 274.2,316.4 275.2,316.7 276.1,317.0 277.2,317.3 278.2,316.1 279.1,316.4 280.0,316.7 281.1,317.1 282.1,317.3 283.0,316.1 283.9,316.5 285.0,316.8 286.0,317.0 286.9,317.3 288.0,316.0 289.0,316.4 290.0,316.7 291.0,315.3 292.2,316.4 293.5,316.7 294.6,317.0 295.5,317.3 296.5,316.1 297.6,316.3 298.5,316.5 299.4,316.9 300.5,317.2 301.5,315.9 302.4,316.1 303.5,316.4 304.4,316.7 305.4,317.0 306.3,315.7 307.4,316.1 308.4,316.6 309.3,317.1 310.4,316.0 311.3,316.3 312.3,316.7 313.4,316.9 314.3,317.2 315.2,318.6 316.3,319.1 317.3,316.7 318.4,318.0 319.5,316.7 320.4,316.9 321.5,319.8 322.6,318.3 323.5,318.5 324.6,317.1 325.6,317.2 326.7,320.1 327.6,318.7 328.7,318.8 329.6,320.1 330.7,317.6 331.7,320.5 332.8,319.0 333.9,319.1 334.8,320.4 335.9,318.0 337.0,319.3 337.9,319.4 339.0,320.7 340.0,320.9 341.1,319.5 342.2,320.8 343.2,319.4 344.5,320.8 345.4,321.0 346.5,321.2 347.5,322.5 348.6,319.9 349.5,320.2 350.6,322.6 351.9,322.8 352.8,321.5 353.9,321.7 354.8,321.9 355.9,323.2 356.9,323.4 358.0,324.9 359.0,323.7 360.1,323.9 361.1,325.2 362.2,322.8 363.3,324.3 364.2,321.9 365.3,324.8 366.2,322.4 367.2,323.9 368.3,324.1 369.4,322.7 370.3,325.7 371.3,325.9 372.3,323.4 373.3,326.3 374.2,326.6 375.2,325.3 376.3,325.5 377.2,325.7 378.1,325.9 379.1,326.0 380.2,327.2 381.1,327.4 382.2,327.6 383.1,327.8 384.1,329.1 385.2,329.3 386.1,326.8 387.1,329.6 388.2,329.8 389.1,330.0 390.0,328.6 391.1,328.8 392.1,331.6 393.0,329.1 393.9,330.4 395.0,330.6 396.0,330.6 396.9,330.8 397.9,331.0 398.9,333.8 399.9,332.4 400.8,332.6 401.9,332.8 402.9,333.2 403.8,333.4 404.9,334.7 405.8,334.9 406.8,335.0 407.7,335.2 408.8,335.3 409.7,336.6 410.7,336.6 411.8,336.8 412.7,336.9 413.7,337.1 414.8,338.3 415.8,336.9 416.9,339.7 417.9,338.3 418.8,338.5 419.9,338.6 420.9,341.5 421.8,340.1 422.9,340.2 423.8,340.4 424.8,340.5 425.9,340.7 426.8,340.8 427.7,339.5 428.7,342.8 429.8,343.2 430.7,343.4 431.7,341.1 432.7,342.6 433.7,342.9 434.6,343.2 435.7,343.6 436.7,344.9 437.6,345.0 438.7,345.2 439.6,345.3 440.6,345.5 441.7,346.7 442.6,346.8 443.7,347.0 444.6,348.2 445.6,348.4 446.7,348.6 447.6,349.8 448.7,351.1 450.0,349.7 450.9,352.5 452.0,352.7 452.9,352.8 453.9,351.5 455.0,354.3 455.9,354.4 456.8,354.5 457.9,355.8 458.9,356.0 460.0,356.2 460.9,355.1 462.0,355.2 462.9,358.0 463.9,358.2 464.8,359.5 465.9,359.8 466.9,360.2 467.8,357.8 468.9,360.8 469.8,361.3 470.8,359.9 471.9,360.2 472.8,363.3 473.9,362.0 475.0,363.5 475.9,363.8 477.0,364.1 478.0,365.6 479.1,365.9 480.0,366.3 481.1,367.7 482.0,368.0 483.0,368.2 484.1,368.4 485.0,368.6 485.9,368.6 486.9,369.9 488.0,370.1 488.9,370.2 489.9,373.1 490.8,373.3 491.9,373.5 492.8,375.0 493.8,372.6 494.7,375.5 495.8,375.8 496.7,374.6 497.8,377.6 498.8,377.8 499.7,378.0 500.7,378.3 501.8,378.6 502.7,380.1 503.6,380.5 504.7,380.8 505.7,381.0 506.6,382.5 507.7,382.9 508.6,383.2 509.6,383.5 510.5,383.8 511.6,385.3 512.5,385.7 513.6,386.0 514.6,386.2 515.5,387.7 516.6,388.0 517.6,388.3 518.5,388.6 519.6,389.0 520.5,389.4 521.5,390.9 522.4,391.2 523.5,391.5 524.4,394.5 525.4,394.8 526.3,395.1 527.4,396.5 528.4,396.9 529.3,397.1 530.2,397.4 531.3,397.7 532.3,399.2 533.4,399.5 534.3,399.8 535.2,401.3 536.3,401.6 537.3,402.0 538.4,403.3 539.5,404.6 540.6,406.1 541.7,406.5 542.6,406.7 543.5,406.9 544.6,407.2 545.6,408.9 546.5,409.2 547.4,409.5 548.5,409.9 549.5,410.1 550.4,411.5 551.5,411.9 552.4,412.1 553.4,416.3 554.6,416.2 555.9,416.5 556.8,416.8 557.9,418.2 558.9,418.8 559.8,419.1 560.9,419.4 561.8,417.0 562.8,417.3 563.7,414.9 564.7,416.3 565.7,413.9 566.7,414.3 567.6,411.9 568.7,413.3 569.7,410.9 570.6,411.3 571.7,408.9 572.6,409.1 573.6,409.4 574.5,407.0 575.4,408.3 576.5,408.7 577.5,408.9 578.4,409.2 579.4,409.5 580.5,409.8 581.4,411.2 582.3,411.5 583.3,411.8" fill="none" stroke="#1baf7a" stroke-width="1.5" stroke-linejoin="round" stroke-linecap="round"/>
<line x1="594" x2="606" y1="387.0" y2="387.0" stroke="#1baf7a" stroke-width="2"/>
<text x="610" y="391.0" fill="#1b1f24">ldelay</text>
<text x="308.4" y="311.6" fill="#4a5560" text-anchor="start">drop rate passes the 83/s excess near 1.5 s</text>
<text x="402.2" y="348.0" fill="#4a5560" text-anchor="start">queue drains; exit at 3.2 s</text>
<text x="58.0" y="442.0" text-anchor="middle" fill="#898781">0</text>
<text x="136.2" y="442.0" text-anchor="middle" fill="#898781">0.5</text>
<text x="214.5" y="442.0" text-anchor="middle" fill="#898781">1</text>
<text x="292.7" y="442.0" text-anchor="middle" fill="#898781">1.5</text>
<text x="370.9" y="442.0" text-anchor="middle" fill="#898781">2</text>
<text x="449.2" y="442.0" text-anchor="middle" fill="#898781">2.5</text>
<text x="527.4" y="442.0" text-anchor="middle" fill="#898781">3</text>
<text x="324.0" y="460.0" text-anchor="middle" fill="#4a5560">seconds since CoDel entered its dropping state</text>
<g class="hit"><title>0.0 s after the first drop · model: 1 drops, next gap 100.0 ms · measured count 1 · sojourn 21.0 ms</title><rect x="58.0" y="30" width="7.8" height="396.0" fill="transparent"/><line x1="58.0" x2="58.0" y1="30" y2="426.0" stroke="#898781" stroke-width="1" opacity="0"/></g>
<g class="hit"><title>0.1 s after the first drop · model: 2 drops, next gap 70.7 ms · measured count 2 · sojourn 29.5 ms</title><rect x="65.8" y="30" width="15.6" height="396.0" fill="transparent"/><line x1="73.6" x2="73.6" y1="30" y2="426.0" stroke="#898781" stroke-width="1" opacity="0"/></g>
<g class="hit"><title>0.2 s after the first drop · model: 3 drops, next gap 57.7 ms · measured count 3 · sojourn 36.6 ms</title><rect x="81.5" y="30" width="15.6" height="396.0" fill="transparent"/><line x1="89.3" x2="89.3" y1="30" y2="426.0" stroke="#898781" stroke-width="1" opacity="0"/></g>
<g class="hit"><title>0.3 s after the first drop · model: 5 drops, next gap 44.7 ms · measured count 6 · sojourn 43.9 ms</title><rect x="97.1" y="30" width="15.6" height="396.0" fill="transparent"/><line x1="104.9" x2="104.9" y1="30" y2="426.0" stroke="#898781" stroke-width="1" opacity="0"/></g>
<g class="hit"><title>0.4 s after the first drop · model: 7 drops, next gap 37.8 ms · measured count 8 · sojourn 52.0 ms</title><rect x="112.8" y="30" width="15.6" height="396.0" fill="transparent"/><line x1="120.6" x2="120.6" y1="30" y2="426.0" stroke="#898781" stroke-width="1" opacity="0"/></g>
<g class="hit"><title>0.5 s after the first drop · model: 10 drops, next gap 31.6 ms · measured count 11 · sojourn 56.6 ms</title><rect x="128.4" y="30" width="15.6" height="396.0" fill="transparent"/><line x1="136.2" x2="136.2" y1="30" y2="426.0" stroke="#898781" stroke-width="1" opacity="0"/></g>
<g class="hit"><title>0.6 s after the first drop · model: 14 drops, next gap 26.7 ms · measured count 15 · sojourn 62.5 ms</title><rect x="144.1" y="30" width="15.6" height="396.0" fill="transparent"/><line x1="151.9" x2="151.9" y1="30" y2="426.0" stroke="#898781" stroke-width="1" opacity="0"/></g>
<g class="hit"><title>0.7 s after the first drop · model: 18 drops, next gap 23.6 ms · measured count 19 · sojourn 66.0 ms</title><rect x="159.7" y="30" width="15.6" height="396.0" fill="transparent"/><line x1="167.5" x2="167.5" y1="30" y2="426.0" stroke="#898781" stroke-width="1" opacity="0"/></g>
<g class="hit"><title>0.8 s after the first drop · model: 22 drops, next gap 21.3 ms · measured count 24 · sojourn 70.4 ms</title><rect x="175.4" y="30" width="15.6" height="396.0" fill="transparent"/><line x1="183.2" x2="183.2" y1="30" y2="426.0" stroke="#898781" stroke-width="1" opacity="0"/></g>
<g class="hit"><title>0.9 s after the first drop · model: 27 drops, next gap 19.2 ms · measured count 29 · sojourn 74.6 ms</title><rect x="191.0" y="30" width="15.6" height="396.0" fill="transparent"/><line x1="198.8" x2="198.8" y1="30" y2="426.0" stroke="#898781" stroke-width="1" opacity="0"/></g>
<g class="hit"><title>1.0 s after the first drop · model: 33 drops, next gap 17.4 ms · measured count 35 · sojourn 76.9 ms</title><rect x="206.6" y="30" width="15.6" height="396.0" fill="transparent"/><line x1="214.5" x2="214.5" y1="30" y2="426.0" stroke="#898781" stroke-width="1" opacity="0"/></g>
<g class="hit"><title>1.1 s after the first drop · model: 39 drops, next gap 16.0 ms · measured count 41 · sojourn 80.7 ms</title><rect x="222.3" y="30" width="15.6" height="396.0" fill="transparent"/><line x1="230.1" x2="230.1" y1="30" y2="426.0" stroke="#898781" stroke-width="1" opacity="0"/></g>
<g class="hit"><title>1.2 s after the first drop · model: 45 drops, next gap 14.9 ms · measured count 47 · sojourn 82.9 ms</title><rect x="237.9" y="30" width="15.6" height="396.0" fill="transparent"/><line x1="245.8" x2="245.8" y1="30" y2="426.0" stroke="#898781" stroke-width="1" opacity="0"/></g>
<g class="hit"><title>1.3 s after the first drop · model: 52 drops, next gap 13.9 ms · measured count 54 · sojourn 82.9 ms</title><rect x="253.6" y="30" width="15.6" height="396.0" fill="transparent"/><line x1="261.4" x2="261.4" y1="30" y2="426.0" stroke="#898781" stroke-width="1" opacity="0"/></g>
<g class="hit"><title>1.4 s after the first drop · model: 60 drops, next gap 12.9 ms · measured count 62 · sojourn 83.6 ms</title><rect x="269.2" y="30" width="15.6" height="396.0" fill="transparent"/><line x1="277.1" x2="277.1" y1="30" y2="426.0" stroke="#898781" stroke-width="1" opacity="0"/></g>
<g class="hit"><title>1.5 s after the first drop · model: 68 drops, next gap 12.1 ms · measured count 70 · sojourn 84.3 ms</title><rect x="284.9" y="30" width="15.6" height="396.0" fill="transparent"/><line x1="292.7" x2="292.7" y1="30" y2="426.0" stroke="#898781" stroke-width="1" opacity="0"/></g>
<g class="hit"><title>1.6 s after the first drop · model: 76 drops, next gap 11.5 ms · measured count 79 · sojourn 84.2 ms</title><rect x="300.5" y="30" width="15.6" height="396.0" fill="transparent"/><line x1="308.4" x2="308.4" y1="30" y2="426.0" stroke="#898781" stroke-width="1" opacity="0"/></g>
<g class="hit"><title>1.7 s after the first drop · model: 85 drops, next gap 10.8 ms · measured count 88 · sojourn 82.7 ms</title><rect x="316.2" y="30" width="15.6" height="396.0" fill="transparent"/><line x1="324.0" x2="324.0" y1="30" y2="426.0" stroke="#898781" stroke-width="1" opacity="0"/></g>
<g class="hit"><title>1.8 s after the first drop · model: 95 drops, next gap 10.3 ms · measured count 98 · sojourn 80.8 ms</title><rect x="331.8" y="30" width="15.6" height="396.0" fill="transparent"/><line x1="339.6" x2="339.6" y1="30" y2="426.0" stroke="#898781" stroke-width="1" opacity="0"/></g>
<g class="hit"><title>1.9 s after the first drop · model: 105 drops, next gap 9.8 ms · measured count 108 · sojourn 80.1 ms</title><rect x="347.5" y="30" width="15.6" height="396.0" fill="transparent"/><line x1="355.3" x2="355.3" y1="30" y2="426.0" stroke="#898781" stroke-width="1" opacity="0"/></g>
<g class="hit"><title>2.0 s after the first drop · model: 115 drops, next gap 9.3 ms · measured count 119 · sojourn 77.0 ms</title><rect x="363.1" y="30" width="15.6" height="396.0" fill="transparent"/><line x1="370.9" x2="370.9" y1="30" y2="426.0" stroke="#898781" stroke-width="1" opacity="0"/></g>
<g class="hit"><title>2.1 s after the first drop · model: 126 drops, next gap 8.9 ms · measured count 129 · sojourn 76.3 ms</title><rect x="378.8" y="30" width="15.6" height="396.0" fill="transparent"/><line x1="386.6" x2="386.6" y1="30" y2="426.0" stroke="#898781" stroke-width="1" opacity="0"/></g>
<g class="hit"><title>2.2 s after the first drop · model: 138 drops, next gap 8.5 ms · measured count 141 · sojourn 71.7 ms</title><rect x="394.4" y="30" width="15.6" height="396.0" fill="transparent"/><line x1="402.2" x2="402.2" y1="30" y2="426.0" stroke="#898781" stroke-width="1" opacity="0"/></g>
<g class="hit"><title>2.3 s after the first drop · model: 150 drops, next gap 8.2 ms · measured count 153 · sojourn 67.4 ms</title><rect x="410.1" y="30" width="15.6" height="396.0" fill="transparent"/><line x1="417.9" x2="417.9" y1="30" y2="426.0" stroke="#898781" stroke-width="1" opacity="0"/></g>
<g class="hit"><title>2.4 s after the first drop · model: 162 drops, next gap 7.9 ms · measured count 166 · sojourn 63.9 ms</title><rect x="425.7" y="30" width="15.6" height="396.0" fill="transparent"/><line x1="433.5" x2="433.5" y1="30" y2="426.0" stroke="#898781" stroke-width="1" opacity="0"/></g>
<g class="hit"><title>2.5 s after the first drop · model: 175 drops, next gap 7.6 ms · measured count 179 · sojourn 57.6 ms</title><rect x="441.4" y="30" width="15.6" height="396.0" fill="transparent"/><line x1="449.2" x2="449.2" y1="30" y2="426.0" stroke="#898781" stroke-width="1" opacity="0"/></g>
<g class="hit"><title>2.6 s after the first drop · model: 189 drops, next gap 7.3 ms · measured count 193 · sojourn 51.1 ms</title><rect x="457.0" y="30" width="15.6" height="396.0" fill="transparent"/><line x1="464.8" x2="464.8" y1="30" y2="426.0" stroke="#898781" stroke-width="1" opacity="0"/></g>
<g class="hit"><title>2.7 s after the first drop · model: 202 drops, next gap 7.0 ms · measured count 206 · sojourn 45.9 ms</title><rect x="472.6" y="30" width="15.6" height="396.0" fill="transparent"/><line x1="480.5" x2="480.5" y1="30" y2="426.0" stroke="#898781" stroke-width="1" opacity="0"/></g>
<g class="hit"><title>2.8 s after the first drop · model: 217 drops, next gap 6.8 ms · measured count 221 · sojourn 38.6 ms</title><rect x="488.3" y="30" width="15.6" height="396.0" fill="transparent"/><line x1="496.1" x2="496.1" y1="30" y2="426.0" stroke="#898781" stroke-width="1" opacity="0"/></g>
<g class="hit"><title>2.9 s after the first drop · model: 232 drops, next gap 6.6 ms · measured count 237 · sojourn 31.3 ms</title><rect x="503.9" y="30" width="15.6" height="396.0" fill="transparent"/><line x1="511.8" x2="511.8" y1="30" y2="426.0" stroke="#898781" stroke-width="1" opacity="0"/></g>
<g class="hit"><title>3.0 s after the first drop · model: 247 drops, next gap 6.4 ms · measured count 252 · sojourn 22.7 ms</title><rect x="519.6" y="30" width="15.6" height="396.0" fill="transparent"/><line x1="527.4" x2="527.4" y1="30" y2="426.0" stroke="#898781" stroke-width="1" opacity="0"/></g>
<g class="hit"><title>3.1 s after the first drop · model: 263 drops, next gap 6.2 ms · measured count 268 · sojourn 14.8 ms</title><rect x="535.2" y="30" width="15.6" height="396.0" fill="transparent"/><line x1="543.1" x2="543.1" y1="30" y2="426.0" stroke="#898781" stroke-width="1" opacity="0"/></g>
<g class="hit"><title>3.2 s after the first drop · model: 280 drops, next gap 6.0 ms · measured count 285 · sojourn 5.5 ms</title><rect x="550.9" y="30" width="15.6" height="396.0" fill="transparent"/><line x1="558.7" x2="558.7" y1="30" y2="426.0" stroke="#898781" stroke-width="1" opacity="0"/></g>
<g class="hit"><title>3.3 s after the first drop · model: 297 drops, next gap 5.8 ms · measured count 0 · sojourn 14.6 ms</title><rect x="566.5" y="30" width="15.6" height="396.0" fill="transparent"/><line x1="574.4" x2="574.4" y1="30" y2="426.0" stroke="#898781" stroke-width="1" opacity="0"/></g>
<g class="hit"><title>3.4 s after the first drop · model: 314 drops, next gap 5.6 ms · measured count 0 · sojourn 10.9 ms</title><rect x="582.2" y="30" width="7.8" height="396.0" fill="transparent"/><line x1="590.0" x2="590.0" y1="30" y2="426.0" stroke="#898781" stroke-width="1" opacity="0"/></g>
</svg>