<svg viewBox="0 0 720 418" role="img" aria-label="Packets per 5 ms leaving the sender during slow start, with pfifo and with fq" xmlns="http://www.w3.org/2000/svg" font-size="12" font-family="-apple-system,BlinkMacSystemFont,Segoe UI,Inter,Roboto,sans-serif">
<line x1="58" x2="570" y1="180.0" y2="180.0" stroke="#e8ebef" stroke-width="1"/>
<text x="50" y="184.0" text-anchor="end" fill="#898781">0</text>
<line x1="58" x2="570" y1="130.0" y2="130.0" stroke="#e8ebef" stroke-width="1"/>
<text x="50" y="134.0" text-anchor="end" fill="#898781">4</text>
<line x1="58" x2="570" y1="80.0" y2="80.0" stroke="#e8ebef" stroke-width="1"/>
<text x="50" y="84.0" text-anchor="end" fill="#898781">8</text>
<line x1="58" x2="570" y1="30.0" y2="30.0" stroke="#e8ebef" stroke-width="1"/>
<text x="50" y="34.0" text-anchor="end" fill="#898781">12</text>
<line x1="58" x2="570" y1="180.0" y2="180.0" stroke="#c3c2b7" stroke-width="1"/>
<text x="14" y="105.0" fill="#4a5560" text-anchor="middle" transform="rotate(-90 14 105.0)">pfifo (pkts/5 ms)</text>
<polyline points="58.0,55.0 68.2,55.0 68.2,180.0 78.5,180.0 78.5,180.0 88.7,180.0 88.7,180.0 99.0,180.0 99.0,180.0 109.2,180.0 109.2,180.0 119.4,180.0 119.4,180.0 129.7,180.0 129.7,180.0 139.9,180.0 139.9,80.0 150.2,80.0 150.2,80.0 160.4,80.0 160.4,130.0 170.6,130.0 170.6,180.0 180.9,180.0 180.9,180.0 191.1,180.0 191.1,180.0 201.4,180.0 201.4,180.0 211.6,180.0 211.6,180.0 221.8,180.0 221.8,105.0 232.1,105.0 232.1,80.0 242.3,80.0 242.3,80.0 252.6,80.0 252.6,105.0 262.8,105.0 262.8,80.0 273.0,80.0 273.0,130.0 283.3,130.0 283.3,180.0 293.5,180.0 293.5,180.0 303.8,180.0 303.8,130.0 314.0,130.0 314.0,80.0 324.2,80.0 324.2,80.0 334.5,80.0 334.5,80.0 344.7,80.0 344.7,80.0 355.0,80.0 355.0,80.0 365.2,80.0 365.2,80.0 375.4,80.0 375.4,80.0 385.7,80.0 385.7,80.0 395.9,80.0 395.9,80.0 406.2,80.0 406.2,55.0 416.4,55.0 416.4,80.0 426.6,80.0 426.6,80.0 436.9,80.0 436.9,80.0 447.1,80.0 447.1,80.0 457.4,80.0 457.4,80.0 467.6,80.0 467.6,55.0 477.8,55.0 477.8,80.0 488.1,80.0 488.1,80.0 498.3,80.0 498.3,80.0 508.6,80.0 508.6,80.0 518.8,80.0 518.8,80.0 529.0,80.0 529.0,80.0 539.3,80.0 539.3,117.5 549.5,117.5 549.5,155.0 559.8,155.0 559.8,155.0 570.0,155.0 570.0,155.0" fill="none" stroke="#eb6834" stroke-width="1.5" stroke-linejoin="round" stroke-linecap="round"/>
<line x1="574" x2="586" y1="80.0" y2="80.0" stroke="#eb6834" stroke-width="2"/>
<text x="590" y="84.0" fill="#1b1f24">pfifo: no pacing</text>
<text x="148.1" y="47.5" fill="#4a5560" text-anchor="start">bursts at 2x the bottleneck, then silence</text>
<line x1="66" x2="80" y1="18" y2="18" stroke="#eb6834" stroke-width="2"/>
<text x="85" y="22" fill="#1b1f24">pfifo on s0, no pacing</text>
<line x1="58" x2="570" y1="376.0" y2="376.0" stroke="#e8ebef" stroke-width="1"/>
<text x="50" y="380.0" text-anchor="end" fill="#898781">0</text>
<line x1="58" x2="570" y1="326.0" y2="326.0" stroke="#e8ebef" stroke-width="1"/>
<text x="50" y="330.0" text-anchor="end" fill="#898781">4</text>
<line x1="58" x2="570" y1="276.0" y2="276.0" stroke="#e8ebef" stroke-width="1"/>
<text x="50" y="280.0" text-anchor="end" fill="#898781">8</text>
<line x1="58" x2="570" y1="226.0" y2="226.0" stroke="#e8ebef" stroke-width="1"/>
<text x="50" y="230.0" text-anchor="end" fill="#898781">12</text>
<line x1="58" x2="570" y1="376.0" y2="376.0" stroke="#c3c2b7" stroke-width="1"/>
<text x="14" y="301.0" fill="#4a5560" text-anchor="middle" transform="rotate(-90 14 301.0)">fq (pkts/5 ms)</text>
<polyline points="58.0,251.0 68.2,251.0 68.2,376.0 78.5,376.0 78.5,376.0 88.7,376.0 88.7,376.0 99.0,376.0 99.0,376.0 109.2,376.0 109.2,376.0 119.4,376.0 119.4,376.0 129.7,376.0 129.7,376.0 139.9,376.0 139.9,351.0 150.2,351.0 150.2,351.0 160.4,351.0 160.4,351.0 170.6,351.0 170.6,351.0 180.9,351.0 180.9,326.0 191.1,326.0 191.1,326.0 201.4,326.0 201.4,351.0 211.6,351.0 211.6,351.0 221.8,351.0 221.8,351.0 232.1,351.0 232.1,301.0 242.3,301.0 242.3,326.0 252.6,326.0 252.6,326.0 262.8,326.0 262.8,326.0 273.0,326.0 273.0,276.0 283.3,276.0 283.3,301.0 293.5,301.0 293.5,301.0 303.8,301.0 303.8,376.0 314.0,376.0 314.0,251.0 324.2,251.0 324.2,276.0 334.5,276.0 334.5,276.0 344.7,276.0 344.7,276.0 355.0,276.0 355.0,276.0 365.2,276.0 365.2,276.0 375.4,276.0 375.4,276.0 385.7,276.0 385.7,251.0 395.9,251.0 395.9,301.0 406.2,301.0 406.2,276.0 416.4,276.0 416.4,263.5 426.6,263.5 426.6,263.5 436.9,263.5 436.9,301.0 447.1,301.0 447.1,276.0 457.4,276.0 457.4,263.5 467.6,263.5 467.6,263.5 477.8,263.5 477.8,276.0 488.1,276.0 488.1,301.0 498.3,301.0 498.3,263.5 508.6,263.5 508.6,263.5 518.8,263.5 518.8,301.0 529.0,301.0 529.0,263.5 539.3,263.5 539.3,263.5 549.5,263.5 549.5,351.0 559.8,351.0 559.8,351.0 570.0,351.0 570.0,351.0" fill="none" stroke="#2a78d6" stroke-width="1.5" stroke-linejoin="round" stroke-linecap="round"/>
<line x1="574" x2="586" y1="276.0" y2="276.0" stroke="#2a78d6" stroke-width="2"/>
<text x="590" y="280.0" fill="#1b1f24">fq: rate TCP computes</text>
<polyline points="58.0,251.0 68.2,251.0 68.2,376.0 78.5,376.0 78.5,376.0 88.7,376.0 88.7,376.0 99.0,376.0 99.0,376.0 109.2,376.0 109.2,376.0 119.4,376.0 119.4,376.0 129.7,376.0 129.7,376.0 139.9,376.0 139.9,351.0 150.2,351.0 150.2,351.0 160.4,351.0 160.4,351.0 170.6,351.0 170.6,351.0 180.9,351.0 180.9,351.0 191.1,351.0 191.1,351.0 201.4,351.0 201.4,351.0 211.6,351.0 211.6,326.0 221.8,326.0 221.8,351.0 232.1,351.0 232.1,351.0 242.3,351.0 242.3,351.0 252.6,351.0 252.6,351.0 262.8,351.0 262.8,351.0 273.0,351.0 273.0,351.0 283.3,351.0 283.3,351.0 293.5,351.0 293.5,351.0 303.8,351.0 303.8,351.0 314.0,351.0 314.0,351.0 324.2,351.0 324.2,351.0 334.5,351.0 334.5,351.0 344.7,351.0 344.7,326.0 355.0,326.0 355.0,351.0 365.2,351.0 365.2,351.0 375.4,351.0 375.4,351.0 385.7,351.0 385.7,351.0 395.9,351.0 395.9,351.0 406.2,351.0 406.2,351.0 416.4,351.0 416.4,351.0 426.6,351.0 426.6,351.0 436.9,351.0 436.9,351.0 447.1,351.0 447.1,351.0 457.4,351.0 457.4,351.0 467.6,351.0 467.6,326.0 477.8,326.0 477.8,351.0 488.1,351.0 488.1,351.0 498.3,351.0 498.3,351.0 508.6,351.0 508.6,351.0 518.8,351.0 518.8,351.0 529.0,351.0 529.0,351.0 539.3,351.0 539.3,351.0 549.5,351.0 549.5,351.0 559.8,351.0 559.8,351.0 570.0,351.0 570.0,351.0" fill="none" stroke="#1baf7a" stroke-width="1.5" stroke-linejoin="round" stroke-linecap="round"/>
<line x1="574" x2="586" y1="351.0" y2="351.0" stroke="#1baf7a" stroke-width="2"/>
<text x="590" y="355.0" fill="#1b1f24">fq: 5 Mbit/s cap</text>
<text x="148.1" y="243.5" fill="#4a5560" text-anchor="start">the same rounds spread over the RTT</text>
<line x1="66" x2="80" y1="214" y2="214" stroke="#2a78d6" stroke-width="2"/>
<text x="85" y="218" fill="#1b1f24">fq, pacing at the computed rate</text>
<line x1="309" x2="323" y1="214" y2="214" stroke="#1baf7a" stroke-width="2"/>
<text x="328" y="218" fill="#1b1f24">fq, SO_MAX_PACING_RATE 5 Mbit/s</text>
<text x="58.0" y="392.0" text-anchor="middle" fill="#898781">0</text>
<text x="160.4" y="392.0" text-anchor="middle" fill="#898781">50</text>
<text x="262.8" y="392.0" text-anchor="middle" fill="#898781">100</text>
<text x="365.2" y="392.0" text-anchor="middle" fill="#898781">150</text>
<text x="467.6" y="392.0" text-anchor="middle" fill="#898781">200</text>
<text x="570.0" y="392.0" text-anchor="middle" fill="#898781">250</text>
<text x="314.0" y="410.0" text-anchor="middle" fill="#4a5560">ms since the first data packet (seen at rtr:r0, before the 10 Mbit/s bottleneck)</text>
<g class="hit"><title>0-5 ms · pfifo: 10 packets · fq: 10 · fq, 5 Mbit/s cap: 10</title><rect x="58.0" y="30" width="5.1" height="346.0" fill="transparent"/><line x1="58.0" x2="58.0" y1="30" y2="376.0" stroke="#898781" stroke-width="1" opacity="0"/></g>
<g class="hit"><title>5-10 ms · pfifo: 0 packets · fq: 0 · fq, 5 Mbit/s cap: 0</title><rect x="63.1" y="30" width="10.2" height="346.0" fill="transparent"/><line x1="68.2" x2="68.2" y1="30" y2="376.0" stroke="#898781" stroke-width="1" opacity="0"/></g>
<g class="hit"><title>10-15 ms · pfifo: 0 packets · fq: 0 · fq, 5 Mbit/s cap: 0</title><rect x="73.4" y="30" width="10.2" height="346.0" fill="transparent"/><line x1="78.5" x2="78.5" y1="30" y2="376.0" stroke="#898781" stroke-width="1" opacity="0"/></g>
<g class="hit"><title>15-20 ms · pfifo: 0 packets · fq: 0 · fq, 5 Mbit/s cap: 0</title><rect x="83.6" y="30" width="10.2" height="346.0" fill="transparent"/><line x1="88.7" x2="88.7" y1="30" y2="376.0" stroke="#898781" stroke-width="1" opacity="0"/></g>
<g class="hit"><title>20-25 ms · pfifo: 0 packets · fq: 0 · fq, 5 Mbit/s cap: 0</title><rect x="93.8" y="30" width="10.2" height="346.0" fill="transparent"/><line x1="99.0" x2="99.0" y1="30" y2="376.0" stroke="#898781" stroke-width="1" opacity="0"/></g>
<g class="hit"><title>25-30 ms · pfifo: 0 packets · fq: 0 · fq, 5 Mbit/s cap: 0</title><rect x="104.1" y="30" width="10.2" height="346.0" fill="transparent"/><line x1="109.2" x2="109.2" y1="30" y2="376.0" stroke="#898781" stroke-width="1" opacity="0"/></g>
<g class="hit"><title>30-35 ms · pfifo: 0 packets · fq: 0 · fq, 5 Mbit/s cap: 0</title><rect x="114.3" y="30" width="10.2" height="346.0" fill="transparent"/><line x1="119.4" x2="119.4" y1="30" y2="376.0" stroke="#898781" stroke-width="1" opacity="0"/></g>
<g class="hit"><title>35-40 ms · pfifo: 0 packets · fq: 0 · fq, 5 Mbit/s cap: 0</title><rect x="124.6" y="30" width="10.2" height="346.0" fill="transparent"/><line x1="129.7" x2="129.7" y1="30" y2="376.0" stroke="#898781" stroke-width="1" opacity="0"/></g>
<g class="hit"><title>40-45 ms · pfifo: 8 packets · fq: 2 · fq, 5 Mbit/s cap: 2</title><rect x="134.8" y="30" width="10.2" height="346.0" fill="transparent"/><line x1="139.9" x2="139.9" y1="30" y2="376.0" stroke="#898781" stroke-width="1" opacity="0"/></g>
<g class="hit"><title>45-50 ms · pfifo: 8 packets · fq: 2 · fq, 5 Mbit/s cap: 2</title><rect x="145.0" y="30" width="10.2" height="346.0" fill="transparent"/><line x1="150.2" x2="150.2" y1="30" y2="376.0" stroke="#898781" stroke-width="1" opacity="0"/></g>
<g class="hit"><title>50-55 ms · pfifo: 4 packets · fq: 2 · fq, 5 Mbit/s cap: 2</title><rect x="155.3" y="30" width="10.2" height="346.0" fill="transparent"/><line x1="160.4" x2="160.4" y1="30" y2="376.0" stroke="#898781" stroke-width="1" opacity="0"/></g>
<g class="hit"><title>55-60 ms · pfifo: 0 packets · fq: 2 · fq, 5 Mbit/s cap: 2</title><rect x="165.5" y="30" width="10.2" height="346.0" fill="transparent"/><line x1="170.6" x2="170.6" y1="30" y2="376.0" stroke="#898781" stroke-width="1" opacity="0"/></g>
<g class="hit"><title>60-65 ms · pfifo: 0 packets · fq: 4 · fq, 5 Mbit/s cap: 2</title><rect x="175.8" y="30" width="10.2" height="346.0" fill="transparent"/><line x1="180.9" x2="180.9" y1="30" y2="376.0" stroke="#898781" stroke-width="1" opacity="0"/></g>
<g class="hit"><title>65-70 ms · pfifo: 0 packets · fq: 4 · fq, 5 Mbit/s cap: 2</title><rect x="186.0" y="30" width="10.2" height="346.0" fill="transparent"/><line x1="191.1" x2="191.1" y1="30" y2="376.0" stroke="#898781" stroke-width="1" opacity="0"/></g>
<g class="hit"><title>70-75 ms · pfifo: 0 packets · fq: 2 · fq, 5 Mbit/s cap: 2</title><rect x="196.2" y="30" width="10.2" height="346.0" fill="transparent"/><line x1="201.4" x2="201.4" y1="30" y2="376.0" stroke="#898781" stroke-width="1" opacity="0"/></g>
<g class="hit"><title>75-80 ms · pfifo: 0 packets · fq: 2 · fq, 5 Mbit/s cap: 4</title><rect x="206.5" y="30" width="10.2" height="346.0" fill="transparent"/><line x1="211.6" x2="211.6" y1="30" y2="376.0" stroke="#898781" stroke-width="1" opacity="0"/></g>
<g class="hit"><title>80-85 ms · pfifo: 6 packets · fq: 2 · fq, 5 Mbit/s cap: 2</title><rect x="216.7" y="30" width="10.2" height="346.0" fill="transparent"/><line x1="221.8" x2="221.8" y1="30" y2="376.0" stroke="#898781" stroke-width="1" opacity="0"/></g>
<g class="hit"><title>85-90 ms · pfifo: 8 packets · fq: 6 · fq, 5 Mbit/s cap: 2</title><rect x="227.0" y="30" width="10.2" height="346.0" fill="transparent"/><line x1="232.1" x2="232.1" y1="30" y2="376.0" stroke="#898781" stroke-width="1" opacity="0"/></g>
<g class="hit"><title>90-95 ms · pfifo: 8 packets · fq: 4 · fq, 5 Mbit/s cap: 2</title><rect x="237.2" y="30" width="10.2" height="346.0" fill="transparent"/><line x1="242.3" x2="242.3" y1="30" y2="376.0" stroke="#898781" stroke-width="1" opacity="0"/></g>
<g class="hit"><title>95-100 ms · pfifo: 6 packets · fq: 4 · fq, 5 Mbit/s cap: 2</title><rect x="247.4" y="30" width="10.2" height="346.0" fill="transparent"/><line x1="252.6" x2="252.6" y1="30" y2="376.0" stroke="#898781" stroke-width="1" opacity="0"/></g>
<g class="hit"><title>100-105 ms · pfifo: 8 packets · fq: 4 · fq, 5 Mbit/s cap: 2</title><rect x="257.7" y="30" width="10.2" height="346.0" fill="transparent"/><line x1="262.8" x2="262.8" y1="30" y2="376.0" stroke="#898781" stroke-width="1" opacity="0"/></g>
<g class="hit"><title>105-110 ms · pfifo: 4 packets · fq: 8 · fq, 5 Mbit/s cap: 2</title><rect x="267.9" y="30" width="10.2" height="346.0" fill="transparent"/><line x1="273.0" x2="273.0" y1="30" y2="376.0" stroke="#898781" stroke-width="1" opacity="0"/></g>
<g class="hit"><title>110-115 ms · pfifo: 0 packets · fq: 6 · fq, 5 Mbit/s cap: 2</title><rect x="278.2" y="30" width="10.2" height="346.0" fill="transparent"/><line x1="283.3" x2="283.3" y1="30" y2="376.0" stroke="#898781" stroke-width="1" opacity="0"/></g>
<g class="hit"><title>115-120 ms · pfifo: 0 packets · fq: 6 · fq, 5 Mbit/s cap: 2</title><rect x="288.4" y="30" width="10.2" height="346.0" fill="transparent"/><line x1="293.5" x2="293.5" y1="30" y2="376.0" stroke="#898781" stroke-width="1" opacity="0"/></g>
<g class="hit"><title>120-125 ms · pfifo: 4 packets · fq: 0 · fq, 5 Mbit/s cap: 2</title><rect x="298.6" y="30" width="10.2" height="346.0" fill="transparent"/><line x1="303.8" x2="303.8" y1="30" y2="376.0" stroke="#898781" stroke-width="1" opacity="0"/></g>
<g class="hit"><title>125-130 ms · pfifo: 8 packets · fq: 10 · fq, 5 Mbit/s cap: 2</title><rect x="308.9" y="30" width="10.2" height="346.0" fill="transparent"/><line x1="314.0" x2="314.0" y1="30" y2="376.0" stroke="#898781" stroke-width="1" opacity="0"/></g>
<g class="hit"><title>130-135 ms · pfifo: 8 packets · fq: 8 · fq, 5 Mbit/s cap: 2</title><rect x="319.1" y="30" width="10.2" height="346.0" fill="transparent"/><line x1="324.2" x2="324.2" y1="30" y2="376.0" stroke="#898781" stroke-width="1" opacity="0"/></g>
<g class="hit"><title>135-140 ms · pfifo: 8 packets · fq: 8 · fq, 5 Mbit/s cap: 2</title><rect x="329.4" y="30" width="10.2" height="346.0" fill="transparent"/><line x1="334.5" x2="334.5" y1="30" y2="376.0" stroke="#898781" stroke-width="1" opacity="0"/></g>
<g class="hit"><title>140-145 ms · pfifo: 8 packets · fq: 8 · fq, 5 Mbit/s cap: 4</title><rect x="339.6" y="30" width="10.2" height="346.0" fill="transparent"/><line x1="344.7" x2="344.7" y1="30" y2="376.0" stroke="#898781" stroke-width="1" opacity="0"/></g>
<g class="hit"><title>145-150 ms · pfifo: 8 packets · fq: 8 · fq, 5 Mbit/s cap: 2</title><rect x="349.8" y="30" width="10.2" height="346.0" fill="transparent"/><line x1="355.0" x2="355.0" y1="30" y2="376.0" stroke="#898781" stroke-width="1" opacity="0"/></g>
<g class="hit"><title>150-155 ms · pfifo: 8 packets · fq: 8 · fq, 5 Mbit/s cap: 2</title><rect x="360.1" y="30" width="10.2" height="346.0" fill="transparent"/><line x1="365.2" x2="365.2" y1="30" y2="376.0" stroke="#898781" stroke-width="1" opacity="0"/></g>
<g class="hit"><title>155-160 ms · pfifo: 8 packets · fq: 8 · fq, 5 Mbit/s cap: 2</title><rect x="370.3" y="30" width="10.2" height="346.0" fill="transparent"/><line x1="375.4" x2="375.4" y1="30" y2="376.0" stroke="#898781" stroke-width="1" opacity="0"/></g>
<g class="hit"><title>160-165 ms · pfifo: 8 packets · fq: 10 · fq, 5 Mbit/s cap: 2</title><rect x="380.6" y="30" width="10.2" height="346.0" fill="transparent"/><line x1="385.7" x2="385.7" y1="30" y2="376.0" stroke="#898781" stroke-width="1" opacity="0"/></g>
<g class="hit"><title>165-170 ms · pfifo: 8 packets · fq: 6 · fq, 5 Mbit/s cap: 2</title><rect x="390.8" y="30" width="10.2" height="346.0" fill="transparent"/><line x1="395.9" x2="395.9" y1="30" y2="376.0" stroke="#898781" stroke-width="1" opacity="0"/></g>
<g class="hit"><title>170-175 ms · pfifo: 10 packets · fq: 8 · fq, 5 Mbit/s cap: 2</title><rect x="401.0" y="30" width="10.2" height="346.0" fill="transparent"/><line x1="406.2" x2="406.2" y1="30" y2="376.0" stroke="#898781" stroke-width="1" opacity="0"/></g>
<g class="hit"><title>175-180 ms · pfifo: 8 packets · fq: 9 · fq, 5 Mbit/s cap: 2</title><rect x="411.3" y="30" width="10.2" height="346.0" fill="transparent"/><line x1="416.4" x2="416.4" y1="30" y2="376.0" stroke="#898781" stroke-width="1" opacity="0"/></g>
<g class="hit"><title>180-185 ms · pfifo: 8 packets · fq: 9 · fq, 5 Mbit/s cap: 2</title><rect x="421.5" y="30" width="10.2" height="346.0" fill="transparent"/><line x1="426.6" x2="426.6" y1="30" y2="376.0" stroke="#898781" stroke-width="1" opacity="0"/></g>
<g class="hit"><title>185-190 ms · pfifo: 8 packets · fq: 6 · fq, 5 Mbit/s cap: 2</title><rect x="431.8" y="30" width="10.2" height="346.0" fill="transparent"/><line x1="436.9" x2="436.9" y1="30" y2="376.0" stroke="#898781" stroke-width="1" opacity="0"/></g>
<g class="hit"><title>190-195 ms · pfifo: 8 packets · fq: 8 · fq, 5 Mbit/s cap: 2</title><rect x="442.0" y="30" width="10.2" height="346.0" fill="transparent"/><line x1="447.1" x2="447.1" y1="30" y2="376.0" stroke="#898781" stroke-width="1" opacity="0"/></g>
<g class="hit"><title>195-200 ms · pfifo: 8 packets · fq: 9 · fq, 5 Mbit/s cap: 2</title><rect x="452.2" y="30" width="10.2" height="346.0" fill="transparent"/><line x1="457.4" x2="457.4" y1="30" y2="376.0" stroke="#898781" stroke-width="1" opacity="0"/></g>
<g class="hit"><title>200-205 ms · pfifo: 10 packets · fq: 9 · fq, 5 Mbit/s cap: 4</title><rect x="462.5" y="30" width="10.2" height="346.0" fill="transparent"/><line x1="467.6" x2="467.6" y1="30" y2="376.0" stroke="#898781" stroke-width="1" opacity="0"/></g>
<g class="hit"><title>205-210 ms · pfifo: 8 packets · fq: 8 · fq, 5 Mbit/s cap: 2</title><rect x="472.7" y="30" width="10.2" height="346.0" fill="transparent"/><line x1="477.8" x2="477.8" y1="30" y2="376.0" stroke="#898781" stroke-width="1" opacity="0"/></g>
<g class="hit"><title>210-215 ms · pfifo: 8 packets · fq: 6 · fq, 5 Mbit/s cap: 2</title><rect x="483.0" y="30" width="10.2" height="346.0" fill="transparent"/><line x1="488.1" x2="488.1" y1="30" y2="376.0" stroke="#898781" stroke-width="1" opacity="0"/></g>
<g class="hit"><title>215-220 ms · pfifo: 8 packets · fq: 9 · fq, 5 Mbit/s cap: 2</title><rect x="493.2" y="30" width="10.2" height="346.0" fill="transparent"/><line x1="498.3" x2="498.3" y1="30" y2="376.0" stroke="#898781" stroke-width="1" opacity="0"/></g>
<g class="hit"><title>220-225 ms · pfifo: 8 packets · fq: 9 · fq, 5 Mbit/s cap: 2</title><rect x="503.4" y="30" width="10.2" height="346.0" fill="transparent"/><line x1="508.6" x2="508.6" y1="30" y2="376.0" stroke="#898781" stroke-width="1" opacity="0"/></g>
<g class="hit"><title>225-230 ms · pfifo: 8 packets · fq: 6 · fq, 5 Mbit/s cap: 2</title><rect x="513.7" y="30" width="10.2" height="346.0" fill="transparent"/><line x1="518.8" x2="518.8" y1="30" y2="376.0" stroke="#898781" stroke-width="1" opacity="0"/></g>
<g class="hit"><title>230-235 ms · pfifo: 8 packets · fq: 9 · fq, 5 Mbit/s cap: 2</title><rect x="523.9" y="30" width="10.2" height="346.0" fill="transparent"/><line x1="529.0" x2="529.0" y1="30" y2="376.0" stroke="#898781" stroke-width="1" opacity="0"/></g>
<g class="hit"><title>235-240 ms · pfifo: 5 packets · fq: 9 · fq, 5 Mbit/s cap: 2</title><rect x="534.2" y="30" width="10.2" height="346.0" fill="transparent"/><line x1="539.3" x2="539.3" y1="30" y2="376.0" stroke="#898781" stroke-width="1" opacity="0"/></g>
<g class="hit"><title>240-245 ms · pfifo: 2 packets · fq: 2 · fq, 5 Mbit/s cap: 2</title><rect x="544.4" y="30" width="10.2" height="346.0" fill="transparent"/><line x1="549.5" x2="549.5" y1="30" y2="376.0" stroke="#898781" stroke-width="1" opacity="0"/></g>
<g class="hit"><title>245-250 ms · pfifo: 2 packets · fq: 2 · fq, 5 Mbit/s cap: 2</title><rect x="554.6" y="30" width="10.2" height="346.0" fill="transparent"/><line x1="559.8" x2="559.8" y1="30" y2="376.0" stroke="#898781" stroke-width="1" opacity="0"/></g>
<g class="hit"><title>250-255 ms · pfifo: 2 packets · fq: 2 · fq, 5 Mbit/s cap: 2</title><rect x="564.9" y="30" width="5.1" height="346.0" fill="transparent"/><line x1="570.0" x2="570.0" y1="30" y2="376.0" stroke="#898781" stroke-width="1" opacity="0"/></g>
</svg>