<svg viewBox="0 0 720 458" role="img" aria-label="Paced and unpaced flows in the same run: completion time of 300-packet flows, and goodput of 15-second flows, against the number of paced flows" xmlns="http://www.w3.org/2000/svg" font-size="12" font-family="-apple-system,BlinkMacSystemFont,Segoe UI,Inter,Roboto,sans-serif">
<line x1="58" x2="610" y1="200.0" y2="200.0" stroke="#e8ebef" stroke-width="1"/>
<text x="50" y="204.0" text-anchor="end" fill="#898781">1</text>
<line x1="58" x2="610" y1="166.0" y2="166.0" stroke="#e8ebef" stroke-width="1"/>
<text x="50" y="170.0" text-anchor="end" fill="#898781">1.1</text>
<line x1="58" x2="610" y1="132.0" y2="132.0" stroke="#e8ebef" stroke-width="1"/>
<text x="50" y="136.0" text-anchor="end" fill="#898781">1.2</text>
<line x1="58" x2="610" y1="98.0" y2="98.0" stroke="#e8ebef" stroke-width="1"/>
<text x="50" y="102.0" text-anchor="end" fill="#898781">1.3</text>
<line x1="58" x2="610" y1="64.0" y2="64.0" stroke="#e8ebef" stroke-width="1"/>
<text x="50" y="68.0" text-anchor="end" fill="#898781">1.4</text>
<line x1="58" x2="610" y1="30.0" y2="30.0" stroke="#e8ebef" stroke-width="1"/>
<text x="50" y="34.0" text-anchor="end" fill="#898781">1.5</text>
<line x1="58" x2="610" y1="200.0" y2="200.0" stroke="#c3c2b7" stroke-width="1"/>
<text x="14" y="115.0" fill="#4a5560" text-anchor="middle" transform="rotate(-90 14 115.0)">300 pkts: completion (s)</text>
<polyline points="141.4,90.2 205.6,84.1 334.0,104.5 462.4,102.8 526.6,108.9 590.7,105.5" fill="none" stroke="#2a78d6" stroke-width="2" stroke-linejoin="round" stroke-linecap="round"/>
<line x1="614" x2="626" y1="105.5" y2="105.5" stroke="#2a78d6" stroke-width="2"/>
<text x="630" y="109.5" fill="#1b1f24">paced flows</text>
<polyline points="77.3,122.5 141.4,128.3 205.6,140.5 334.0,142.5 462.4,118.1 526.6,67.1" fill="none" stroke="#eb6834" stroke-width="2" stroke-linejoin="round" stroke-linecap="round"/>
<line x1="614" x2="626" y1="67.1" y2="67.1" stroke="#eb6834" stroke-width="2"/>
<text x="630" y="71.1" fill="#1b1f24">unpaced flows</text>
<circle cx="141.4" cy="90.2" r="3" fill="#2a78d6" stroke="#fff" stroke-width="1.5"/>
<circle cx="205.6" cy="84.1" r="3" fill="#2a78d6" stroke="#fff" stroke-width="1.5"/>
<circle cx="334.0" cy="104.5" r="3" fill="#2a78d6" stroke="#fff" stroke-width="1.5"/>
<circle cx="462.4" cy="102.8" r="3" fill="#2a78d6" stroke="#fff" stroke-width="1.5"/>
<circle cx="526.6" cy="108.9" r="3" fill="#2a78d6" stroke="#fff" stroke-width="1.5"/>
<circle cx="590.7" cy="105.5" r="3" fill="#2a78d6" stroke="#fff" stroke-width="1.5"/>
<circle cx="77.3" cy="122.5" r="3" fill="#eb6834" stroke="#fff" stroke-width="1.5"/>
<circle cx="141.4" cy="128.3" r="3" fill="#eb6834" stroke="#fff" stroke-width="1.5"/>
<circle cx="205.6" cy="140.5" r="3" fill="#eb6834" stroke="#fff" stroke-width="1.5"/>
<circle cx="334.0" cy="142.5" r="3" fill="#eb6834" stroke="#fff" stroke-width="1.5"/>
<circle cx="462.4" cy="118.1" r="3" fill="#eb6834" stroke="#fff" stroke-width="1.5"/>
<circle cx="526.6" cy="67.1" r="3" fill="#eb6834" stroke="#fff" stroke-width="1.5"/>
<circle cx="72" cy="18" r="4" fill="#2a78d6"/>
<text x="85" y="22" fill="#1b1f24">flows paced by TCP&#x27;s own timer</text>
<circle cx="308" cy="18" r="4" fill="#eb6834"/>
<text x="321" y="22" fill="#1b1f24">unpaced flows (pfifo)</text>
<line x1="58" x2="610" y1="416.0" y2="416.0" stroke="#e8ebef" stroke-width="1"/>
<text x="50" y="420.0" text-anchor="end" fill="#898781">0.8</text>
<line x1="58" x2="610" y1="382.0" y2="382.0" stroke="#e8ebef" stroke-width="1"/>
<text x="50" y="386.0" text-anchor="end" fill="#898781">0.9</text>
<line x1="58" x2="610" y1="348.0" y2="348.0" stroke="#e8ebef" stroke-width="1"/>
<text x="50" y="352.0" text-anchor="end" fill="#898781">1</text>
<line x1="58" x2="610" y1="314.0" y2="314.0" stroke="#e8ebef" stroke-width="1"/>
<text x="50" y="318.0" text-anchor="end" fill="#898781">1.1</text>
<line x1="58" x2="610" y1="280.0" y2="280.0" stroke="#e8ebef" stroke-width="1"/>
<text x="50" y="284.0" text-anchor="end" fill="#898781">1.2</text>
<line x1="58" x2="610" y1="246.0" y2="246.0" stroke="#e8ebef" stroke-width="1"/>
<text x="50" y="250.0" text-anchor="end" fill="#898781">1.3</text>
<line x1="58" x2="610" y1="416.0" y2="416.0" stroke="#c3c2b7" stroke-width="1"/>
<text x="14" y="331.0" fill="#4a5560" text-anchor="middle" transform="rotate(-90 14 331.0)">15 s flows: Mbit/s each</text>
<line x1="58" x2="610" y1="310.6" y2="310.6" stroke="#898781" stroke-width="1" stroke-dasharray="4 4"/>
<text x="616" y="314.6" fill="#898781">fair share 1.11</text>
<polyline points="141.4,293.9 205.6,295.0 334.0,287.5 462.4,307.9 526.6,320.1 590.7,332.0" fill="none" stroke="#2a78d6" stroke-width="2" stroke-linejoin="round" stroke-linecap="round"/>
<line x1="614" x2="626" y1="332.0" y2="332.0" stroke="#2a78d6" stroke-width="2"/>
<text x="630" y="336.0" fill="#1b1f24">paced flows</text>
<polyline points="77.3,337.6 141.4,339.2 205.6,347.3 334.0,368.7 462.4,405.5 526.6,414.0" fill="none" stroke="#eb6834" stroke-width="2" stroke-linejoin="round" stroke-linecap="round"/>
<line x1="614" x2="626" y1="414.0" y2="414.0" stroke="#eb6834" stroke-width="2"/>
<text x="630" y="418.0" fill="#1b1f24">unpaced flows</text>
<circle cx="141.4" cy="293.9" r="3" fill="#2a78d6" stroke="#fff" stroke-width="1.5"/>
<circle cx="205.6" cy="295.0" r="3" fill="#2a78d6" stroke="#fff" stroke-width="1.5"/>
<circle cx="334.0" cy="287.5" r="3" fill="#2a78d6" stroke="#fff" stroke-width="1.5"/>
<circle cx="462.4" cy="307.9" r="3" fill="#2a78d6" stroke="#fff" stroke-width="1.5"/>
<circle cx="526.6" cy="320.1" r="3" fill="#2a78d6" stroke="#fff" stroke-width="1.5"/>
<circle cx="590.7" cy="332.0" r="3" fill="#2a78d6" stroke="#fff" stroke-width="1.5"/>
<circle cx="77.3" cy="337.6" r="3" fill="#eb6834" stroke="#fff" stroke-width="1.5"/>
<circle cx="141.4" cy="339.2" r="3" fill="#eb6834" stroke="#fff" stroke-width="1.5"/>
<circle cx="205.6" cy="347.3" r="3" fill="#eb6834" stroke="#fff" stroke-width="1.5"/>
<circle cx="334.0" cy="368.7" r="3" fill="#eb6834" stroke="#fff" stroke-width="1.5"/>
<circle cx="462.4" cy="405.5" r="3" fill="#eb6834" stroke="#fff" stroke-width="1.5"/>
<circle cx="526.6" cy="414.0" r="3" fill="#eb6834" stroke="#fff" stroke-width="1.5"/>
<circle cx="72" cy="234" r="4" fill="#2a78d6"/>
<text x="85" y="238" fill="#1b1f24">paced flows</text>
<circle cx="175" cy="234" r="4" fill="#eb6834"/>
<text x="188" y="238" fill="#1b1f24">unpaced flows</text>
<text x="77.3" y="432.0" text-anchor="middle" fill="#898781">0</text>
<text x="141.4" y="432.0" text-anchor="middle" fill="#898781">1</text>
<text x="205.6" y="432.0" text-anchor="middle" fill="#898781">2</text>
<text x="334.0" y="432.0" text-anchor="middle" fill="#898781">4</text>
<text x="462.4" y="432.0" text-anchor="middle" fill="#898781">6</text>
<text x="526.6" y="432.0" text-anchor="middle" fill="#898781">7</text>
<text x="590.7" y="432.0" text-anchor="middle" fill="#898781">8</text>
<text x="334.0" y="450.0" text-anchor="middle" fill="#4a5560">how many of the eight flows are paced</text>
<g class="hit"><title>0 of 8 flows paced by TCP&#x27;s timer · 300-packet flows, mean completion: paced -, unpaced 1.228 s (24 runs)</title><rect x="58.0" y="30" width="51.3" height="386.0" fill="transparent"/><line x1="77.3" x2="77.3" y1="30" y2="416.0" stroke="#898781" stroke-width="1" opacity="0"/></g>
<g class="hit"><title>1 of 8 flows paced by TCP&#x27;s timer · 300-packet flows, mean completion: paced 1.323 s, unpaced 1.211 s (24 runs) · 15 s flows, Mbit/s per flow: paced 1.16, unpaced 1.03 (4 runs)</title><rect x="109.3" y="30" width="64.2" height="386.0" fill="transparent"/><line x1="141.4" x2="141.4" y1="30" y2="416.0" stroke="#898781" stroke-width="1" opacity="0"/></g>
<g class="hit"><title>2 of 8 flows paced by TCP&#x27;s timer · 300-packet flows, mean completion: paced 1.341 s, unpaced 1.175 s (24 runs) · 15 s flows, Mbit/s per flow: paced 1.16, unpaced 1.00 (4 runs)</title><rect x="173.5" y="30" width="96.3" height="386.0" fill="transparent"/><line x1="205.6" x2="205.6" y1="30" y2="416.0" stroke="#898781" stroke-width="1" opacity="0"/></g>
<g class="hit"><title>4 of 8 flows paced by TCP&#x27;s timer · 300-packet flows, mean completion: paced 1.281 s, unpaced 1.169 s (24 runs) · 15 s flows, Mbit/s per flow: paced 1.18, unpaced 0.94 (4 runs)</title><rect x="269.8" y="30" width="128.4" height="386.0" fill="transparent"/><line x1="334.0" x2="334.0" y1="30" y2="416.0" stroke="#898781" stroke-width="1" opacity="0"/></g>
<g class="hit"><title>6 of 8 flows paced by TCP&#x27;s timer · 300-packet flows, mean completion: paced 1.286 s, unpaced 1.241 s (24 runs) · 15 s flows, Mbit/s per flow: paced 1.12, unpaced 0.83 (4 runs)</title><rect x="398.2" y="30" width="96.3" height="386.0" fill="transparent"/><line x1="462.4" x2="462.4" y1="30" y2="416.0" stroke="#898781" stroke-width="1" opacity="0"/></g>
<g class="hit"><title>7 of 8 flows paced by TCP&#x27;s timer · 300-packet flows, mean completion: paced 1.268 s, unpaced 1.391 s (24 runs) · 15 s flows, Mbit/s per flow: paced 1.08, unpaced 0.81 (4 runs)</title><rect x="494.5" y="30" width="64.2" height="386.0" fill="transparent"/><line x1="526.6" x2="526.6" y1="30" y2="416.0" stroke="#898781" stroke-width="1" opacity="0"/></g>
<g class="hit"><title>8 of 8 flows paced by TCP&#x27;s timer · 300-packet flows, mean completion: paced 1.278 s, unpaced - (24 runs)</title><rect x="558.7" y="30" width="51.3" height="386.0" fill="transparent"/><line x1="590.7" x2="590.7" y1="30" y2="416.0" stroke="#898781" stroke-width="1" opacity="0"/></g>
</svg>